<svg width="32" height="32" viewBox="0 0 32 32" fill="none" xmlns="http://www.w3.org/2000/svg">
<path fill-rule="evenodd" clip-rule="evenodd" d="M17.1759 3.15222C17.4885 3.46478 17.6641 3.8887 17.6641 4.33073V5.9974C17.6641 6.43942 17.4885 6.86335 17.1759 7.17591C16.8633 7.48847 16.4394 7.66406 15.9974 7.66406C15.5554 7.66406 15.1314 7.48847 14.8189 7.17591C14.5063 6.86335 14.3307 6.43942 14.3307 5.9974V4.33073C14.3307 3.8887 14.5063 3.46478 14.8189 3.15222C15.1314 2.83966 15.5554 2.66406 15.9974 2.66406C16.4394 2.66406 16.8633 2.83966 17.1759 3.15222ZM25.8935 7.75339C25.8973 8.19039 25.7293 8.61139 25.4257 8.92573L24.2474 10.1041C23.9331 10.4077 23.5121 10.5757 23.0751 10.5719C22.6381 10.5681 22.22 10.3928 21.911 10.0838C21.602 9.77475 21.4267 9.35673 21.4229 8.91973C21.4191 8.48274 21.5871 8.06173 21.8907 7.7474L23.0691 6.56906C23.3834 6.26547 23.8044 6.09748 24.2414 6.10127C24.6784 6.10507 25.0964 6.28035 25.4054 6.58936C25.7144 6.89838 25.8897 7.3164 25.8935 7.75339ZM28.8426 17.1759C29.1551 16.8633 29.3307 16.4394 29.3307 15.9974C29.3307 15.5554 29.1551 15.1314 28.8426 14.8189C28.53 14.5063 28.1061 14.3307 27.6641 14.3307H25.9974C25.5554 14.3307 25.1314 14.5063 24.8189 14.8189C24.5063 15.1314 24.3307 15.5554 24.3307 15.9974C24.3307 16.4394 24.5063 16.8633 24.8189 17.1759C25.1314 17.4885 25.5554 17.6641 25.9974 17.6641H27.6641C28.1061 17.6641 28.53 17.4885 28.8426 17.1759ZM8.28839 10.4776C8.08505 10.3902 7.90114 10.2632 7.7474 10.1041L6.56906 8.92573C6.26547 8.61139 6.09748 8.19039 6.10127 7.75339C6.10507 7.3164 6.28035 6.89838 6.58936 6.58936C6.89838 6.28035 7.3164 6.10507 7.75339 6.10127C8.19039 6.09748 8.61139 6.26547 8.92573 6.56906L10.1041 7.7474C10.2632 7.90114 10.3902 8.08505 10.4776 8.28839C10.5649 8.49173 10.6109 8.71043 10.6128 8.93173C10.6147 9.15303 10.5726 9.37249 10.4888 9.57732C10.405 9.78215 10.2812 9.96823 10.1247 10.1247C9.96823 10.2812 9.78215 10.405 9.57732 10.4888C9.37249 10.5726 9.15303 10.6147 8.93173 10.6128C8.71043 10.6109 8.49173 10.5649 8.28839 10.4776ZM7.17591 17.1759C7.48847 16.8633 7.66406 16.4394 7.66406 15.9974C7.66406 15.5554 7.48847 15.1314 7.17591 14.8189C6.86335 14.5063 6.43942 14.3307 5.9974 14.3307H4.33073C3.8887 14.3307 3.46478 14.5063 3.15222 14.8189C2.83966 15.1314 2.66406 15.5554 2.66406 15.9974C2.66406 16.4394 2.83966 16.8633 3.15222 17.1759C3.46478 17.4885 3.8887 17.6641 4.33073 17.6641H5.9974C6.43942 17.6641 6.86335 17.4885 7.17591 17.1759ZM12.6641 24.3307V25.9974C12.6641 26.8815 13.0153 27.7293 13.6404 28.3544C14.2655 28.9795 15.1133 29.3307 15.9974 29.3307C16.8815 29.3307 17.7293 28.9795 18.3544 28.3544C18.9795 27.7293 19.3307 26.8815 19.3307 25.9974V24.3307H12.6641ZM20.1257 21.2324C19.6774 21.5874 19.3557 22.0974 19.3307 22.6641H12.6624C12.6391 22.0974 12.3191 21.5874 11.8691 21.2324C10.7813 20.3745 9.98775 19.199 9.59882 17.8693C9.2099 16.5396 9.24488 15.1218 9.69891 13.8129C10.1529 12.5041 11.0034 11.3691 12.1322 10.5659C13.261 9.76271 14.612 9.3311 15.9974 9.3311C17.3828 9.3311 18.7338 9.76271 19.8626 10.5659C20.9913 11.3691 21.8419 12.5041 22.2959 13.8129C22.7499 15.1218 22.7849 16.5396 22.396 17.8693C22.007 19.199 21.2135 20.3745 20.1257 21.2324ZM15.9931 12.6641C16.2999 12.6641 16.5486 12.9625 16.5486 13.3307V15.4391H18.6641C19.0323 15.4391 19.3307 15.6878 19.3307 15.9946C19.3307 16.3014 19.0323 16.5502 18.6641 16.5502H16.5486V18.6641C16.5486 19.0323 16.2999 19.3307 15.9931 19.3307C15.6862 19.3307 15.4375 19.0323 15.4375 18.6641V16.5502H13.3307C12.9625 16.5502 12.6641 16.3014 12.6641 15.9946C12.6641 15.6878 12.9625 15.4391 13.3307 15.4391H15.4375V13.3307C15.4375 12.9625 15.6862 12.6641 15.9931 12.6641Z" fill="#FFFCF4"/>
</svg>
