<svg width="32" height="32" viewBox="0 0 32 32" fill="none" xmlns="http://www.w3.org/2000/svg">
<path fill-rule="evenodd" clip-rule="evenodd" d="M14.9575 0.0336002C15.3028 0.011286 15.6505 0 16 0C16.3496 0 16.6972 0.011286 17.0425 0.0336002L16.3859 10.1942C16.259 10.186 16.1303 10.1818 16 10.1818C15.8697 10.1818 15.741 10.186 15.6141 10.1942L14.9575 0.0336002ZM10.856 0.846315C11.5138 0.623076 12.1906 0.441413 12.883 0.304433L14.8589 10.2927C14.6089 10.3421 14.365 10.4076 14.1282 10.488L10.856 0.846315ZM19.117 0.304434C19.8094 0.441413 20.4862 0.623076 21.144 0.846315L17.8718 10.488C17.635 10.4076 17.3911 10.3421 17.1411 10.2927L19.117 0.304434ZM23.0811 1.64954C23.7102 1.96038 24.3154 2.31102 24.8934 2.69799L19.2291 11.1588C19.0184 11.0177 18.7986 10.8904 18.5709 10.7779L23.0811 1.64954ZM7.10656 2.69799C7.68458 2.31102 8.28977 1.96038 8.91889 1.64954L13.4291 10.7779C13.2014 10.8904 12.9816 11.0177 12.7709 11.1588L7.10656 2.69799ZM3.97173 5.44892C4.43153 4.92503 4.92503 4.43153 5.44892 3.97173L12.1653 11.6242C11.9734 11.7926 11.7926 11.9734 11.6242 12.1653L3.97173 5.44892ZM26.5511 3.97173C27.075 4.43153 27.5685 4.92503 28.0283 5.44892L20.3758 12.1653C20.2074 11.9734 20.0266 11.7926 19.8347 11.6242L26.5511 3.97173ZM29.302 7.10656C29.689 7.68458 30.0396 8.28977 30.3505 8.91889L21.2221 13.4291C21.1096 13.2014 20.9823 12.9816 20.8412 12.7709L29.302 7.10656ZM1.64954 8.91889C1.96038 8.28977 2.31102 7.68458 2.69799 7.10657L11.1588 12.7709C11.0177 12.9816 10.8904 13.2014 10.7779 13.4291L1.64954 8.91889ZM0.304434 12.883C0.441413 12.1906 0.623076 11.5138 0.846315 10.856L10.488 14.1282C10.4076 14.365 10.3421 14.6089 10.2927 14.8589L0.304434 12.883ZM31.1537 10.856C31.3769 11.5138 31.5586 12.1906 31.6956 12.883L21.7073 14.8589C21.6579 14.6089 21.5924 14.365 21.512 14.1282L31.1537 10.856ZM0 16C0 15.6505 0.011286 15.3028 0.0336002 14.9575L10.1942 15.6141C10.186 15.741 10.1818 15.8697 10.1818 16C10.1818 16.1303 10.186 16.259 10.1942 16.3859L0.0336002 17.0425C0.011286 16.6972 0 16.3495 0 16ZM31.9664 14.9575C31.9887 15.3028 32 15.6505 32 16C32 16.3496 31.9887 16.6972 31.9664 17.0425L21.8058 16.3859C21.814 16.259 21.8182 16.1303 21.8182 16C21.8182 15.8697 21.814 15.741 21.8058 15.6141L31.9664 14.9575ZM0.846315 21.144C0.623076 20.4862 0.441413 19.8094 0.304433 19.117L10.2927 17.1411C10.3421 17.3911 10.4076 17.635 10.488 17.8718L0.846315 21.144ZM31.6956 19.117C31.5586 19.8094 31.3769 20.4862 31.1537 21.144L21.512 17.8718C21.5924 17.635 21.6579 17.3911 21.7073 17.1411L31.6956 19.117ZM2.69799 24.8934C2.31102 24.3154 1.96038 23.7102 1.64954 23.0811L10.7779 18.5709C10.8904 18.7986 11.0177 19.0184 11.1588 19.2291L2.69799 24.8934ZM30.3505 23.0811C30.0396 23.7102 29.689 24.3154 29.302 24.8934L20.8412 19.2291C20.9823 19.0184 21.1096 18.7986 21.2221 18.5709L30.3505 23.0811ZM5.44892 28.0283C4.92503 27.5685 4.43153 27.075 3.97173 26.5511L11.6242 19.8347C11.7926 20.0266 11.9734 20.2074 12.1653 20.3758L5.44892 28.0283ZM28.0283 26.5511C27.5685 27.075 27.075 27.5685 26.5511 28.0283L19.8347 20.3758C20.0266 20.2074 20.2074 20.0266 20.3758 19.8347L28.0283 26.5511ZM8.91889 30.3505C8.28977 30.0396 7.68458 29.689 7.10657 29.302L12.7709 20.8412C12.9816 20.9823 13.2014 21.1096 13.4291 21.2221L8.91889 30.3505ZM24.8934 29.302C24.3154 29.689 23.7102 30.0396 23.0811 30.3505L18.5709 21.2221C18.7986 21.1096 19.0184 20.9823 19.2291 20.8412L24.8934 29.302ZM12.883 31.6956C12.1906 31.5586 11.5138 31.3769 10.856 31.1537L14.1282 21.512C14.365 21.5924 14.6089 21.6579 14.8589 21.7073L12.883 31.6956ZM21.144 31.1537C20.4862 31.3769 19.8094 31.5586 19.117 31.6956L17.1411 21.7073C17.3911 21.6579 17.635 21.5924 17.8718 21.512L21.144 31.1537ZM16 32C15.6505 32 15.3028 31.9887 14.9575 31.9664L15.6141 21.8058C15.741 21.814 15.8697 21.8182 16 21.8182C16.1303 21.8182 16.259 21.814 16.3859 21.8058L17.0425 31.9664C16.6972 31.9887 16.3495 32 16 32Z" fill="#E9AD00"/>
</svg>
