<svg width="64" height="64" viewBox="0 0 64 64" fill="none" xmlns="http://www.w3.org/2000/svg">
<path fill-rule="evenodd" clip-rule="evenodd" d="M24.5022 10.5838L32.001 31.9219L39.4999 10.5838C41.3166 5.41417 37.4806 4.79049e-07 32.001 0C26.5215 -4.7902e-07 22.6854 5.41416 24.5022 10.5838ZM24.5022 53.4149L32.001 32.0768L39.4999 53.4149C41.3166 58.5845 37.4806 63.9987 32.001 63.9987C26.5215 63.9987 22.6854 58.5845 24.5022 53.4149ZM32.0781 32.0001L53.4162 24.5013C58.5858 22.6845 64 26.5206 64 32.0001C64 37.4797 58.5858 41.3157 53.4162 39.499L32.0781 32.0001ZM10.5838 24.5012L31.9219 32.0001L10.5838 39.499C5.41417 41.3157 2.39525e-07 37.4797 0 32.0001C-2.39525e-07 26.5206 5.41416 22.6845 10.5838 24.5012ZM32.0578 32.054L52.4486 41.8398C57.3887 44.2107 58.5046 50.7516 54.63 54.6262C51.2397 58.0165 45.808 57.5859 42.9148 54.1158C42.5015 53.6201 42.14 53.0623 41.8436 52.4448L32.0578 32.054ZM22.1626 11.5538L31.9484 31.9446L11.5576 22.1588C6.61752 19.788 5.50163 13.2471 9.37626 9.37248C13.2509 5.49785 19.7918 6.61373 22.1626 11.5538ZM31.9447 32.0546L22.1589 52.4454C20.0844 56.768 14.8172 58.1627 10.9371 55.8481C10.3828 55.5175 9.85683 55.1111 9.3725 54.6268C5.9822 51.2365 6.41276 45.8048 9.88286 42.9116C10.3786 42.4983 10.9364 42.1368 11.5539 41.8404L31.9447 32.0546ZM52.4449 22.1594L32.054 31.9453L41.8399 11.5544C42.1362 10.9369 42.4977 10.3792 42.911 9.88345C45.8042 6.41334 51.2359 5.98278 54.6262 9.37308C54.6868 9.43362 54.7461 9.49481 54.8042 9.55663C58.465 13.4511 57.3078 19.8257 52.4449 22.1594Z" fill="#ECACA2"/>
</svg>
