<svg width="40" height="40" viewBox="0 0 40 40" fill="none" xmlns="http://www.w3.org/2000/svg">
<path fill-rule="evenodd" clip-rule="evenodd" d="M19.7118 11.114C19.8083 11.1109 19.9051 11.1094 20.0022 11.1094C20.0993 11.1094 20.1961 11.1109 20.2925 11.114L20.172 14.8548C20.1157 14.853 20.0591 14.8521 20.0022 14.8521C19.9453 14.8521 19.8886 14.853 19.8323 14.8548L19.7118 11.114ZM17.9845 11.3398C18.1728 11.296 18.3633 11.2583 18.5559 11.2267L19.1612 14.9201C19.0499 14.9384 18.94 14.9602 18.8314 14.9854L17.9845 11.3398ZM21.4485 11.2267C21.641 11.2583 21.8315 11.296 22.0199 11.3398L21.173 14.9854C21.0644 14.9602 20.9544 14.9384 20.8431 14.9201L21.4485 11.2267ZM16.3318 11.9006C16.5082 11.8206 16.6877 11.7461 16.87 11.6775L18.189 15.18C18.0839 15.2196 17.9803 15.2626 17.8786 15.3088L16.3318 11.9006ZM23.1343 11.6775C23.3167 11.7461 23.4961 11.8206 23.6725 11.9006L22.1258 15.3088C22.024 15.2626 21.9205 15.2196 21.8154 15.18L23.1343 11.6775ZM14.8231 12.7734C14.9803 12.6605 15.1415 12.5526 15.3063 12.4499L17.2857 15.6263C17.1902 15.6858 17.0968 15.7483 17.0056 15.8138L14.8231 12.7734ZM24.698 12.4499C24.8628 12.5526 25.024 12.6605 25.1813 12.7734L22.9987 15.8138C22.9075 15.7483 22.8141 15.6858 22.7187 15.6263L24.698 12.4499ZM13.5147 13.9216C13.6472 13.7803 13.7842 13.6433 13.9255 13.5108L16.4845 16.242C16.4024 16.3189 16.3228 16.3985 16.2459 16.4806L13.5147 13.9216ZM26.0788 13.5108C26.2202 13.6433 26.3572 13.7803 26.4896 13.9216L23.7585 16.4806C23.6815 16.3985 23.6019 16.3189 23.5198 16.242L26.0788 13.5108ZM12.4538 15.3024C12.5565 15.1376 12.6644 14.9764 12.7773 14.8192L15.8177 17.0017C15.7522 17.0929 15.6897 17.1863 15.6302 17.2818L12.4538 15.3024ZM27.227 14.8192C27.3399 14.9764 27.4479 15.1376 27.5506 15.3024L24.3741 17.2818C24.3146 17.1863 24.2521 17.0929 24.1866 17.0017L27.227 14.8192ZM11.6814 16.8661C11.75 16.6837 11.8245 16.5043 11.9045 16.3279L15.3127 17.8746C15.2665 17.9764 15.2235 18.0799 15.1839 18.1851L11.6814 16.8661ZM28.0998 16.3279C28.1798 16.5043 28.2543 16.6838 28.323 16.8661L24.8204 18.1851C24.7808 18.0799 24.7379 17.9764 24.6917 17.8746L28.0998 16.3279ZM11.2306 18.5519C11.2622 18.3594 11.3 18.1689 11.3437 17.9806L14.9893 18.8275C14.9641 18.9361 14.9423 19.046 14.9241 19.1573L11.2306 18.5519ZM28.6606 17.9806C28.7044 18.1689 28.7421 18.3594 28.7737 18.5519L25.0803 19.1573C25.0621 19.046 25.0403 18.9361 25.015 18.8275L28.6606 17.9806ZM11.1133 19.9983C11.1133 19.9012 11.1148 19.8044 11.118 19.7079L14.8587 19.8284C14.8569 19.8847 14.856 19.9414 14.856 19.9983C14.856 20.0552 14.8569 20.1118 14.8587 20.1681L11.118 20.2886C11.1148 20.1922 11.1133 20.0954 11.1133 19.9983ZM28.8864 19.7079C28.8895 19.8044 28.8911 19.9012 28.8911 19.9983C28.8911 20.0954 28.8895 20.1922 28.8864 20.2886L25.1456 20.1681C25.1475 20.1118 25.1484 20.0552 25.1484 19.9983C25.1484 19.9414 25.1475 19.8847 25.1456 19.8284L28.8864 19.7079ZM11.3437 22.0159C11.3 21.8276 11.2622 21.6371 11.2306 21.4446L14.9241 20.8392C14.9423 20.9505 14.9641 21.0605 14.9893 21.1691L11.3437 22.0159ZM28.7737 21.4446C28.7421 21.6371 28.7044 21.8276 28.6606 22.0159L25.015 21.1691C25.0403 21.0605 25.062 20.9505 25.0803 20.8392L28.7737 21.4446ZM11.9045 23.6686C11.8245 23.4922 11.75 23.3128 11.6814 23.1304L15.1839 21.8115C15.2235 21.9166 15.2665 22.0201 15.3127 22.1219L11.9045 23.6686ZM28.323 23.1304C28.2543 23.3128 28.1798 23.4922 28.0998 23.6686L24.6917 22.1219C24.7379 22.0201 24.7808 21.9166 24.8204 21.8115L28.323 23.1304ZM12.7773 25.1774C12.6644 25.0201 12.5565 24.8589 12.4538 24.6941L15.6302 22.7148C15.6897 22.8102 15.7522 22.9036 15.8177 22.9948L12.7773 25.1774ZM27.5506 24.6941C27.4479 24.8589 27.3399 25.0201 27.227 25.1774L24.1866 22.9948C24.2521 22.9036 24.3146 22.8102 24.3741 22.7148L27.5506 24.6941ZM13.9255 26.4857C13.7842 26.3533 13.6472 26.2163 13.5147 26.0749L16.2459 23.5159C16.3228 23.598 16.4024 23.6776 16.4845 23.7546L13.9255 26.4857ZM26.4896 26.0749C26.3572 26.2163 26.2202 26.3533 26.0788 26.4857L23.5198 23.7546C23.6019 23.6776 23.6815 23.598 23.7585 23.5159L26.4896 26.0749ZM15.3063 27.5466C15.1415 27.4439 14.9803 27.336 14.8231 27.2231L17.0056 24.1827C17.0968 24.2482 17.1902 24.3107 17.2857 24.3702L15.3063 27.5466ZM25.1813 27.2231C25.024 27.336 24.8628 27.4439 24.698 27.5466L22.7187 24.3702C22.8141 24.3107 22.9075 24.2482 22.9987 24.1827L25.1813 27.2231ZM16.87 28.3191C16.6877 28.2504 16.5082 28.1759 16.3318 28.0959L17.8786 24.6878C17.9803 24.7339 18.0839 24.7769 18.189 24.8165L16.87 28.3191ZM23.6725 28.0959C23.4961 28.1759 23.3167 28.2504 23.1343 28.3191L21.8154 24.8165C21.9205 24.7769 22.024 24.7339 22.1258 24.6878L23.6725 28.0959ZM18.5559 28.7698C18.3633 28.7382 18.1728 28.7005 17.9845 28.6567L18.8314 25.0111C18.94 25.0363 19.0499 25.0581 19.1612 25.0764L18.5559 28.7698ZM22.0199 28.6567C21.8315 28.7005 21.641 28.7382 21.4485 28.7698L20.8431 25.0764C20.9544 25.0581 21.0644 25.0363 21.173 25.0111L22.0199 28.6567ZM20.0022 28.8872C19.9051 28.8872 19.8083 28.8856 19.7118 28.8825L19.8323 25.1417C19.8886 25.1435 19.9453 25.1445 20.0022 25.1445C20.0591 25.1445 20.1157 25.1435 20.172 25.1417L20.2925 28.8825C20.1961 28.8856 20.0993 28.8872 20.0022 28.8872Z" fill="#262626"/>
<path fill-rule="evenodd" clip-rule="evenodd" d="M19.3467 0.0105118C19.5637 0.00351856 19.7815 0 20 0C20.2185 0 20.4363 0.00351856 20.6533 0.0105118L20.3822 8.4272C20.2554 8.42312 20.128 8.42105 20 8.42105C19.872 8.42105 19.7446 8.42312 19.6178 8.4272L19.3467 0.0105118ZM15.4602 0.518437C15.8839 0.420011 16.3126 0.335069 16.7458 0.264069L18.1079 8.57424C17.8575 8.61527 17.61 8.66431 17.3657 8.72107L15.4602 0.518437ZM23.2542 0.264069C23.6874 0.33507 24.1161 0.420011 24.5398 0.518437L22.6343 8.72107C22.39 8.66431 22.1425 8.61527 21.8921 8.57424L23.2542 0.264069ZM11.7418 1.78032C12.1386 1.60025 12.5423 1.43271 12.9526 1.27821L15.9203 9.159C15.6838 9.24807 15.4509 9.34471 15.2219 9.44864L11.7418 1.78032ZM27.0474 1.27821C27.4577 1.43271 27.8614 1.60025 28.2582 1.78032L24.7781 9.44864C24.5491 9.34471 24.3162 9.24807 24.0797 9.159L27.0474 1.27821ZM8.34702 3.74405C8.70088 3.49003 9.06348 3.24721 9.4343 3.01614L13.8879 10.1631C13.6732 10.297 13.463 10.4377 13.2578 10.585L8.34702 3.74405ZM30.5657 3.01614C30.9365 3.24721 31.2991 3.49003 31.653 3.74405L26.7422 10.585C26.537 10.4377 26.3268 10.297 26.1121 10.1631L30.5657 3.01614ZM5.40322 6.32754C5.70122 6.0095 6.0095 5.70122 6.32754 5.40322L12.0853 11.5483C11.9006 11.7214 11.7214 11.9006 11.5483 12.0853L5.40322 6.32754ZM33.6725 5.40322C33.9905 5.70122 34.2988 6.0095 34.5968 6.32754L28.4517 12.0853C28.2786 11.9006 28.0994 11.7214 27.9147 11.5483L33.6725 5.40322ZM3.01614 9.4343C3.24721 9.06348 3.49003 8.70088 3.74405 8.34702L10.585 13.2578C10.4377 13.463 10.297 13.6732 10.1631 13.8879L3.01614 9.4343ZM36.256 8.34702C36.51 8.70088 36.7528 9.06348 36.9839 9.4343L29.8369 13.8879C29.7031 13.6732 29.5623 13.463 29.415 13.2578L36.256 8.34702ZM1.27821 12.9526C1.43271 12.5423 1.60025 12.1386 1.78032 11.7418L9.44864 15.2219C9.34471 15.4509 9.24807 15.6838 9.159 15.9203L1.27821 12.9526ZM38.2197 11.7418C38.3997 12.1386 38.5673 12.5423 38.7218 12.9526L30.841 15.9203C30.7519 15.6838 30.6553 15.4509 30.5514 15.2219L38.2197 11.7418ZM0.264069 16.7458C0.33507 16.3126 0.420011 15.8839 0.518437 15.4602L8.72107 17.3657C8.66431 17.61 8.61527 17.8575 8.57424 18.1079L0.264069 16.7458ZM39.4816 15.4602C39.58 15.8839 39.6649 16.3126 39.7359 16.7458L31.4258 18.1079C31.3847 17.8575 31.3357 17.61 31.2789 17.3657L39.4816 15.4602ZM0 20C0 19.7815 0.00351856 19.5637 0.0105118 19.3467L8.4272 19.6178C8.42312 19.7446 8.42105 19.872 8.42105 20C8.42105 20.128 8.42312 20.2554 8.4272 20.3822L0.0105118 20.6533C0.00351856 20.4363 0 20.2185 0 20ZM39.9895 19.3467C39.9965 19.5637 40 19.7815 40 20C40 20.2185 39.9965 20.4363 39.9895 20.6533L31.5728 20.3822C31.5769 20.2554 31.5789 20.128 31.5789 20C31.5789 19.872 31.5769 19.7446 31.5728 19.6178L39.9895 19.3467ZM0.518437 24.5398C0.420011 24.1161 0.335069 23.6874 0.264069 23.2542L8.57424 21.8921C8.61527 22.1425 8.66431 22.39 8.72107 22.6343L0.518437 24.5398ZM39.7359 23.2542C39.6649 23.6874 39.58 24.1161 39.4816 24.5398L31.2789 22.6343C31.3357 22.39 31.3847 22.1425 31.4258 21.8921L39.7359 23.2542ZM1.78032 28.2582C1.60025 27.8614 1.43271 27.4577 1.27821 27.0474L9.159 24.0797C9.24807 24.3162 9.34471 24.5491 9.44864 24.7781L1.78032 28.2582ZM38.7218 27.0474C38.5673 27.4577 38.3997 27.8614 38.2197 28.2582L30.5514 24.7781C30.6553 24.5491 30.7519 24.3162 30.841 24.0797L38.7218 27.0474ZM3.74405 31.653C3.49003 31.2991 3.24721 30.9365 3.01614 30.5657L10.1631 26.1121C10.297 26.3268 10.4377 26.537 10.585 26.7422L3.74405 31.653ZM36.9839 30.5657C36.7528 30.9365 36.51 31.2991 36.256 31.653L29.415 26.7422C29.5623 26.537 29.7031 26.3268 29.8369 26.1121L36.9839 30.5657ZM6.32754 34.5968C6.0095 34.2988 5.70122 33.9905 5.40322 33.6725L11.5483 27.9147C11.7214 28.0994 11.9006 28.2786 12.0853 28.4517L6.32754 34.5968ZM34.5968 33.6725C34.2988 33.9905 33.9905 34.2988 33.6725 34.5968L27.9147 28.4517C28.0994 28.2786 28.2786 28.0994 28.4517 27.9147L34.5968 33.6725ZM9.4343 36.9839C9.06348 36.7528 8.70088 36.51 8.34702 36.256L13.2578 29.415C13.463 29.5623 13.6732 29.7031 13.8879 29.8369L9.4343 36.9839ZM31.653 36.256C31.2991 36.51 30.9365 36.7528 30.5657 36.9839L26.1121 29.8369C26.3268 29.7031 26.537 29.5623 26.7422 29.415L31.653 36.256ZM12.9526 38.7218C12.5423 38.5673 12.1386 38.3997 11.7418 38.2197L15.2219 30.5514C15.4509 30.6553 15.6838 30.7519 15.9203 30.841L12.9526 38.7218ZM28.2582 38.2197C27.8614 38.3997 27.4577 38.5673 27.0474 38.7218L24.0797 30.841C24.3162 30.7519 24.5491 30.6553 24.7781 30.5514L28.2582 38.2197ZM16.7458 39.7359C16.3126 39.6649 15.8839 39.58 15.4602 39.4816L17.3657 31.2789C17.61 31.3357 17.8575 31.3847 18.1079 31.4258L16.7458 39.7359ZM24.5398 39.4816C24.1161 39.58 23.6874 39.6649 23.2542 39.7359L21.8921 31.4258C22.1425 31.3847 22.39 31.3357 22.6343 31.2789L24.5398 39.4816ZM20 40C19.7815 40 19.5637 39.9965 19.3467 39.9895L19.6178 31.5728C19.7446 31.5769 19.872 31.5789 20 31.5789C20.128 31.5789 20.2554 31.5769 20.3822 31.5728L20.6533 39.9895C20.4363 39.9965 20.2185 40 20 40Z" fill="#262626"/>
</svg>
