<svg width="64" height="64" viewBox="0 0 64 64" fill="none" xmlns="http://www.w3.org/2000/svg">
<path fill-rule="evenodd" clip-rule="evenodd" d="M33.0667 11.2778C35.6987 10.7785 37.6888 8.4661 37.6888 5.68882C37.6888 2.54697 35.1419 1.29916e-06 32 0C28.8581 1.16429e-06 26.3112 2.54697 26.3112 5.68882C26.3112 8.4661 28.3013 10.7785 30.9333 11.2778V26.1988L33.0667 26.1988L33.0667 11.2778ZM11.2778 33.0668C10.7785 35.6988 8.46609 37.689 5.68882 37.689C2.54697 37.689 0 35.142 0 32.0001C0 28.8583 2.54697 26.3113 5.68882 26.3113C8.46609 26.3113 10.7785 28.3015 11.2778 30.9335H26.1988L26.1988 33.0668H11.2778ZM30.9332 52.7222C28.3012 53.2215 26.311 55.5339 26.311 58.3112C26.311 61.453 28.858 64 31.9999 64C35.1417 64 37.6887 61.453 37.6887 58.3112C37.6887 55.5339 35.6985 53.2215 33.0665 52.7222L33.0665 37.8012H30.9332L30.9332 52.7222ZM58.311 26.311C55.5338 26.311 53.2213 28.3012 52.7221 30.9332L37.8011 30.9332V33.0665L52.7221 33.0665C53.2213 35.6985 55.5338 37.6887 58.311 37.6887C61.4529 37.6887 63.9999 35.1417 63.9999 31.9999C63.9999 28.858 61.4529 26.311 58.311 26.311ZM47.4075 18.1002C49.6216 19.6083 52.664 19.3804 54.6279 17.4166C56.8495 15.1949 56.8495 11.593 54.6279 9.37135C52.4062 7.14972 48.8043 7.14972 46.5827 9.37135C44.6188 11.3352 44.3909 14.3776 45.899 16.5917L35.3483 27.1425L36.8568 28.6509L47.4075 18.1002ZM16.5936 18.1005C14.3794 19.6085 11.337 19.3806 9.3732 17.4168C7.15158 15.1952 7.15158 11.5932 9.3732 9.37161C11.5948 7.14998 15.1968 7.14998 17.4184 9.37161C19.3822 11.3354 19.6101 14.3778 18.1021 16.592L28.6528 27.1427L27.1443 28.6512L16.5936 18.1005ZM16.5936 45.8977C14.3794 44.3896 11.337 44.6175 9.3732 46.5813C7.15158 48.8029 7.15158 52.4049 9.3732 54.6265C11.5948 56.8481 15.1968 56.8481 17.4184 54.6265C19.3822 52.6627 19.6101 49.6203 18.1021 47.4061L28.6528 36.8554L27.1443 35.3469L16.5936 45.8977ZM54.6279 46.5813C52.664 44.6175 49.6216 44.3896 47.4075 45.8977L36.8568 35.3469L35.3483 36.8554L45.899 47.4061C44.3909 49.6203 44.6188 52.6627 46.5827 54.6265C48.8043 56.8481 52.4062 56.8481 54.6279 54.6265C56.8495 52.4049 56.8495 48.8029 54.6279 46.5813Z" fill="#E9AD00"/>
</svg>
