<svg width="24" height="24" viewBox="0 0 24 24" fill="none" xmlns="http://www.w3.org/2000/svg">
<path fill-rule="evenodd" clip-rule="evenodd" d="M11.3485 2.021C11.5643 2.00705 11.7815 2 12 2C12.2185 2 12.4357 2.00705 12.6515 2.021L12.2412 8.37139C12.1619 8.36627 12.0815 8.36364 12 8.36364C11.9185 8.36364 11.8381 8.36627 11.7588 8.37139L11.3485 2.021ZM8.785 2.52895C9.19611 2.38942 9.6191 2.27588 10.0519 2.19027L11.2868 8.43292C11.1305 8.46384 10.9781 8.50477 10.8301 8.555L8.785 2.52895ZM13.9481 2.19027C14.3809 2.27588 14.8039 2.38942 15.215 2.52895L13.1699 8.555C13.0219 8.50477 12.8695 8.46384 12.7132 8.43292L13.9481 2.19027ZM16.4257 3.03096C16.8189 3.22524 17.1971 3.44439 17.5584 3.68625L14.0182 8.97423C13.8865 8.88608 13.7491 8.80652 13.6068 8.73621L16.4257 3.03096ZM6.4416 3.68625C6.80286 3.44439 7.1811 3.22524 7.57431 3.03096L10.3932 8.73621C10.2509 8.80652 10.1135 8.88608 9.98182 8.97423L6.4416 3.68625ZM4.48233 5.40557C4.76971 5.07814 5.07814 4.76971 5.40557 4.48233L9.60328 9.26513C9.48337 9.37037 9.37037 9.48337 9.26513 9.60328L4.48233 5.40557ZM18.5944 4.48233C18.9219 4.76971 19.2303 5.07814 19.5177 5.40557L14.7349 9.60328C14.6296 9.48337 14.5166 9.37037 14.3967 9.26513L18.5944 4.48233ZM20.3138 6.4416C20.5556 6.80286 20.7748 7.1811 20.969 7.57431L15.2638 10.3932C15.1935 10.2509 15.1139 10.1135 15.0258 9.98182L20.3138 6.4416ZM3.03096 7.57431C3.22524 7.1811 3.44439 6.80286 3.68625 6.4416L8.97423 9.98182C8.88608 10.1135 8.80652 10.2509 8.73621 10.3932L3.03096 7.57431ZM2.19027 10.0519C2.27588 9.6191 2.38942 9.19611 2.52895 8.785L8.555 10.8301C8.50477 10.9781 8.46384 11.1305 8.43292 11.2868L2.19027 10.0519ZM21.4711 8.785C21.6106 9.19611 21.7241 9.6191 21.8097 10.0519L15.5671 11.2868C15.5362 11.1305 15.4952 10.9781 15.445 10.8301L21.4711 8.785ZM2 12C2 11.7815 2.00705 11.5643 2.021 11.3485L8.37139 11.7588C8.36627 11.8381 8.36364 11.9185 8.36364 12C8.36364 12.0815 8.36627 12.1619 8.37139 12.2412L2.021 12.6515C2.00705 12.4357 2 12.2185 2 12ZM21.979 11.3485C21.9929 11.5643 22 11.7815 22 12C22 12.2185 21.9929 12.4357 21.979 12.6515L15.6286 12.2412C15.6337 12.1619 15.6364 12.0815 15.6364 12C15.6364 11.9185 15.6337 11.8381 15.6286 11.7588L21.979 11.3485ZM2.52895 15.215C2.38942 14.8039 2.27588 14.3809 2.19027 13.9481L8.43292 12.7132C8.46384 12.8695 8.50477 13.0219 8.555 13.1699L2.52895 15.215ZM21.8097 13.9481C21.7241 14.3809 21.6106 14.8039 21.4711 15.215L15.445 13.1699C15.4952 13.0219 15.5362 12.8695 15.5671 12.7132L21.8097 13.9481ZM3.68625 17.5584C3.44439 17.1971 3.22524 16.8189 3.03096 16.4257L8.73621 13.6068C8.80652 13.7491 8.88608 13.8865 8.97423 14.0182L3.68625 17.5584ZM20.969 16.4257C20.7748 16.8189 20.5556 17.1971 20.3138 17.5584L15.0258 14.0182C15.1139 13.8865 15.1935 13.7491 15.2638 13.6068L20.969 16.4257ZM5.40557 19.5177C5.07814 19.2303 4.76971 18.9219 4.48233 18.5944L9.26513 14.3967C9.37037 14.5166 9.48337 14.6296 9.60328 14.7349L5.40557 19.5177ZM19.5177 18.5944C19.2303 18.9219 18.9219 19.2303 18.5944 19.5177L14.3967 14.7349C14.5166 14.6296 14.6296 14.5166 14.7349 14.3967L19.5177 18.5944ZM7.57431 20.969C7.1811 20.7748 6.80286 20.5556 6.4416 20.3138L9.98182 15.0258C10.1135 15.1139 10.2509 15.1935 10.3932 15.2638L7.57431 20.969ZM17.5584 20.3138C17.1971 20.5556 16.8189 20.7748 16.4257 20.969L13.6068 15.2638C13.7491 15.1935 13.8865 15.1139 14.0182 15.0258L17.5584 20.3138ZM10.0519 21.8097C9.6191 21.7241 9.19611 21.6106 8.785 21.4711L10.8301 15.445C10.9781 15.4952 11.1305 15.5362 11.2868 15.5671L10.0519 21.8097ZM15.215 21.4711C14.8039 21.6106 14.3809 21.7241 13.9481 21.8097L12.7132 15.5671C12.8695 15.5362 13.0219 15.4952 13.1699 15.445L15.215 21.4711ZM12 22C11.7815 22 11.5643 21.9929 11.3485 21.979L11.7588 15.6286C11.8381 15.6337 11.9185 15.6364 12 15.6364C12.0815 15.6364 12.1619 15.6337 12.2412 15.6286L12.6515 21.979C12.4357 21.9929 12.2185 22 12 22Z" fill="#404040"/>
</svg>
