<svg width="24" height="24" viewBox="0 0 24 24" fill="none" xmlns="http://www.w3.org/2000/svg">
<path fill-rule="evenodd" clip-rule="evenodd" d="M11.2164 0.0252495C11.4757 0.00849152 11.737 0 12 0C12.263 0 12.5243 0.00849152 12.7836 0.0252495L12.5257 4.01692C12.3522 4.00571 12.1769 4 12 4C11.8231 4 11.6478 4.00571 11.4743 4.01692L11.2164 0.0252495ZM17.3098 1.23618C17.7813 1.46917 18.2352 1.7321 18.6688 2.02241L16.4435 5.34628C16.1542 5.15259 15.8518 4.97741 15.5379 4.82234L17.3098 1.23618ZM5.3312 2.02241C5.76484 1.7321 6.21866 1.46917 6.69022 1.23618L8.46208 4.82234C8.14823 4.97741 7.8458 5.15259 7.55648 5.34628L5.3312 2.02241ZM21.9776 5.3312C22.2679 5.76484 22.5308 6.21866 22.7638 6.69022L19.1777 8.46208C19.0226 8.14823 18.8474 7.8458 18.6537 7.55648L21.9776 5.3312ZM1.23618 6.69022C1.46917 6.21866 1.7321 5.76484 2.02241 5.3312L5.34628 7.55648C5.15259 7.8458 4.97741 8.14823 4.82234 8.46208L1.23618 6.69022ZM0 12C0 11.737 0.00849152 11.4757 0.0252495 11.2164L4.01692 11.4743C4.00571 11.6478 4 11.8231 4 12C4 12.1769 4.00571 12.3522 4.01692 12.5257L0.0252495 12.7836C0.00849152 12.5243 0 12.263 0 12ZM23.9748 11.2164C23.9915 11.4757 24 11.737 24 12C24 12.263 23.9915 12.5243 23.9748 12.7836L19.9831 12.5257C19.9943 12.3522 20 12.1769 20 12C20 11.8231 19.9943 11.6478 19.9831 11.4743L23.9748 11.2164ZM2.02241 18.6688C1.7321 18.2352 1.46917 17.7813 1.23618 17.3098L4.82234 15.5379C4.97741 15.8518 5.15259 16.1542 5.34628 16.4435L2.02241 18.6688ZM22.7638 17.3098C22.5308 17.7813 22.2679 18.2352 21.9776 18.6688L18.6537 16.4435C18.8474 16.1542 19.0226 15.8518 19.1777 15.5379L22.7638 17.3098ZM6.69022 22.7638C6.21866 22.5308 5.76484 22.2679 5.3312 21.9776L7.55648 18.6537C7.8458 18.8474 8.14823 19.0226 8.46208 19.1777L6.69022 22.7638ZM18.6688 21.9776C18.2352 22.2679 17.7813 22.5308 17.3098 22.7638L15.5379 19.1777C15.8518 19.0226 16.1542 18.8474 16.4435 18.6537L18.6688 21.9776ZM12 24C11.737 24 11.4757 23.9915 11.2164 23.9748L11.4743 19.9831C11.6478 19.9943 11.8231 20 12 20C12.1769 20 12.3522 19.9943 12.5257 19.9831L12.7836 23.9748C12.5243 23.9915 12.263 24 12 24Z" fill="#141414"/>
</svg>
