<svg width="64" height="64" viewBox="0 0 64 64" fill="none" xmlns="http://www.w3.org/2000/svg">
<path fill-rule="evenodd" clip-rule="evenodd" d="M29.9151 0.0672004C30.6056 0.0225719 31.3009 0 32 0C32.6991 0 33.3944 0.0225719 34.0849 0.0672004L32.7717 20.3885C32.518 20.3721 32.2607 20.3636 32 20.3636C31.7393 20.3636 31.482 20.3721 31.2283 20.3885L29.9151 0.0672004ZM21.712 1.69263C23.0276 1.24615 24.3811 0.882825 25.7659 0.608866L29.7179 20.5853C29.2178 20.6843 28.73 20.8153 28.2564 20.976L21.712 1.69263ZM38.2341 0.608867C39.6189 0.882826 40.9725 1.24615 42.288 1.69263L35.7436 20.976C35.27 20.8153 34.7822 20.6843 34.2821 20.5853L38.2341 0.608867ZM46.1622 3.29908C47.4205 3.92076 48.6308 4.62205 49.7869 5.39599L38.4582 22.3175C38.0369 22.0355 37.5972 21.7809 37.1418 21.5559L46.1622 3.29908ZM14.2131 5.39599C15.3692 4.62205 16.5795 3.92076 17.8378 3.29908L26.8582 21.5559C26.4028 21.7809 25.9631 22.0355 25.5418 22.3175L14.2131 5.39599ZM7.94347 10.8978C8.86306 9.85006 9.85006 8.86306 10.8978 7.94347L24.3305 23.2484C23.9468 23.5852 23.5852 23.9468 23.2484 24.3305L7.94347 10.8978ZM53.1022 7.94347C54.1499 8.86306 55.1369 9.85006 56.0565 10.8978L40.7516 24.3305C40.4148 23.9468 40.0532 23.5852 39.6695 23.2484L53.1022 7.94347ZM58.604 14.2131C59.378 15.3692 60.0792 16.5795 60.7009 17.8378L42.4441 26.8582C42.2191 26.4028 41.9645 25.9631 41.6825 25.5418L58.604 14.2131ZM3.29908 17.8378C3.92076 16.5795 4.62205 15.3692 5.39599 14.2131L22.3175 25.5418C22.0355 25.9631 21.7809 26.4028 21.5559 26.8582L3.29908 17.8378ZM0.608867 25.7659C0.882826 24.3811 1.24615 23.0276 1.69263 21.712L20.976 28.2564C20.8153 28.73 20.6843 29.2178 20.5853 29.7179L0.608867 25.7659ZM62.3074 21.712C62.7538 23.0276 63.1172 24.3811 63.3911 25.7659L43.4147 29.7179C43.3157 29.2178 43.1847 28.73 43.024 28.2564L62.3074 21.712ZM0 32C0 31.3009 0.0225719 30.6056 0.0672004 29.9151L20.3885 31.2283C20.3721 31.482 20.3636 31.7393 20.3636 32C20.3636 32.2607 20.3721 32.518 20.3885 32.7717L0.0672004 34.0849C0.0225719 33.3944 0 32.6991 0 32ZM63.9328 29.9151C63.9774 30.6056 64 31.3009 64 32C64 32.6991 63.9774 33.3944 63.9328 34.0849L43.6116 32.7717C43.6279 32.518 43.6364 32.2607 43.6364 32C43.6364 31.7393 43.6279 31.482 43.6116 31.2283L63.9328 29.9151ZM1.69263 42.288C1.24615 40.9725 0.882825 39.6189 0.608866 38.2341L20.5853 34.2821C20.6843 34.7822 20.8153 35.27 20.976 35.7436L1.69263 42.288ZM63.3911 38.2341C63.1172 39.6189 62.7538 40.9725 62.3074 42.288L43.024 35.7436C43.1847 35.27 43.3157 34.7822 43.4147 34.2821L63.3911 38.2341ZM5.39599 49.7869C4.62205 48.6308 3.92076 47.4205 3.29908 46.1622L21.5559 37.1418C21.7809 37.5972 22.0355 38.0369 22.3175 38.4582L5.39599 49.7869ZM60.7009 46.1622C60.0792 47.4205 59.378 48.6308 58.604 49.7869L41.6825 38.4582C41.9645 38.0369 42.2191 37.5972 42.4441 37.1418L60.7009 46.1622ZM10.8978 56.0565C9.85006 55.1369 8.86306 54.1499 7.94347 53.1022L23.2484 39.6695C23.5852 40.0532 23.9468 40.4148 24.3305 40.7516L10.8978 56.0565ZM56.0565 53.1022C55.1369 54.1499 54.1499 55.1369 53.1022 56.0565L39.6695 40.7516C40.0532 40.4148 40.4148 40.0532 40.7516 39.6695L56.0565 53.1022ZM17.8378 60.7009C16.5795 60.0792 15.3692 59.378 14.2131 58.604L25.5418 41.6825C25.9631 41.9645 26.4028 42.2191 26.8582 42.4441L17.8378 60.7009ZM49.7869 58.604C48.6308 59.378 47.4205 60.0792 46.1622 60.7009L37.1418 42.4441C37.5972 42.2191 38.0369 41.9645 38.4582 41.6825L49.7869 58.604ZM25.7659 63.3911C24.3811 63.1172 23.0276 62.7538 21.712 62.3074L28.2564 43.024C28.73 43.1847 29.2178 43.3157 29.7179 43.4147L25.7659 63.3911ZM42.288 62.3074C40.9725 62.7538 39.6189 63.1172 38.2341 63.3911L34.2821 43.4147C34.7822 43.3157 35.27 43.1847 35.7436 43.024L42.288 62.3074ZM32 64C31.3009 64 30.6056 63.9774 29.9151 63.9328L31.2283 43.6116C31.482 43.6279 31.7393 43.6364 32 43.6364C32.2607 43.6364 32.518 43.6279 32.7717 43.6116L34.0849 63.9328C33.3944 63.9774 32.6991 64 32 64Z" fill="#E9AD00"/>
</svg>
