<svg width="152" height="24" viewBox="0 0 152 24" fill="none" xmlns="http://www.w3.org/2000/svg">
	<path fill-rule="evenodd" clip-rule="evenodd"
		d="M9.34845 0.0210001C9.56427 0.00705372 9.78153 0 10 0C10.2185 0 10.4357 0.00705372 10.6515 0.0210001L10.2412 6.37139C10.1619 6.36627 10.0815 6.36364 10 6.36364C9.91854 6.36364 9.83813 6.36627 9.75883 6.37139L9.34845 0.0210001ZM6.785 0.528947C7.19611 0.389423 7.6191 0.275883 8.05186 0.190271L9.28684 6.43292C9.13055 6.46384 8.97813 6.50477 8.83013 6.555L6.785 0.528947ZM11.9481 0.190271C12.3809 0.275883 12.8039 0.389423 13.215 0.528947L11.1699 6.555C11.0219 6.50477 10.8695 6.46384 10.7132 6.43292L11.9481 0.190271ZM14.4257 1.03096C14.8189 1.22524 15.1971 1.44439 15.5584 1.68625L12.0182 6.97423C11.8865 6.88608 11.7491 6.80652 11.6068 6.73621L14.4257 1.03096ZM4.4416 1.68625C4.80286 1.44439 5.1811 1.22524 5.57431 1.03096L8.39317 6.73621C8.25087 6.80652 8.11348 6.88608 7.98182 6.97423L4.4416 1.68625ZM2.48233 3.40557C2.76971 3.07814 3.07814 2.76971 3.40557 2.48233L7.60328 7.26513C7.48337 7.37037 7.37037 7.48337 7.26513 7.60328L2.48233 3.40557ZM16.5944 2.48233C16.9219 2.76971 17.2303 3.07814 17.5177 3.40557L12.7349 7.60328C12.6296 7.48337 12.5166 7.37037 12.3967 7.26513L16.5944 2.48233ZM18.3138 4.4416C18.5556 4.80286 18.7748 5.1811 18.969 5.57431L13.2638 8.39317C13.1935 8.25087 13.1139 8.11348 13.0258 7.98182L18.3138 4.4416ZM1.03096 5.57431C1.22524 5.1811 1.44439 4.80286 1.68625 4.4416L6.97423 7.98182C6.88608 8.11348 6.80652 8.25087 6.73621 8.39317L1.03096 5.57431ZM0.190271 8.05186C0.275883 7.6191 0.389423 7.19611 0.528947 6.785L6.555 8.83013C6.50477 8.97813 6.46384 9.13055 6.43292 9.28684L0.190271 8.05186ZM19.4711 6.785C19.6106 7.19611 19.7241 7.6191 19.8097 8.05186L13.5671 9.28684C13.5362 9.13055 13.4952 8.97813 13.445 8.83013L19.4711 6.785ZM0 10C0 9.78153 0.00705372 9.56426 0.0210001 9.34845L6.37139 9.75883C6.36627 9.83813 6.36364 9.91854 6.36364 10C6.36364 10.0815 6.36627 10.1619 6.37139 10.2412L0.0210001 10.6515C0.00705372 10.4357 0 10.2185 0 10ZM19.979 9.34845C19.9929 9.56427 20 9.78153 20 10C20 10.2185 19.9929 10.4357 19.979 10.6515L13.6286 10.2412C13.6337 10.1619 13.6364 10.0815 13.6364 10C13.6364 9.91854 13.6337 9.83813 13.6286 9.75883L19.979 9.34845ZM0.528947 13.215C0.389423 12.8039 0.275883 12.3809 0.190271 11.9481L6.43292 10.7132C6.46384 10.8695 6.50477 11.0219 6.555 11.1699L0.528947 13.215ZM19.8097 11.9481C19.7241 12.3809 19.6106 12.8039 19.4711 13.215L13.445 11.1699C13.4952 11.0219 13.5362 10.8695 13.5671 10.7132L19.8097 11.9481ZM1.68625 15.5584C1.44439 15.1971 1.22524 14.8189 1.03096 14.4257L6.73621 11.6068C6.80652 11.7491 6.88608 11.8865 6.97423 12.0182L1.68625 15.5584ZM18.969 14.4257C18.7748 14.8189 18.5556 15.1971 18.3138 15.5584L13.0258 12.0182C13.1139 11.8865 13.1935 11.7491 13.2638 11.6068L18.969 14.4257ZM3.40557 17.5177C3.07814 17.2303 2.76971 16.9219 2.48233 16.5944L7.26513 12.3967C7.37037 12.5166 7.48337 12.6296 7.60328 12.7349L3.40557 17.5177ZM17.5177 16.5944C17.2303 16.9219 16.9219 17.2303 16.5944 17.5177L12.3967 12.7349C12.5166 12.6296 12.6296 12.5166 12.7349 12.3967L17.5177 16.5944ZM5.57431 18.969C5.1811 18.7748 4.80286 18.5556 4.4416 18.3138L7.98182 13.0258C8.11348 13.1139 8.25087 13.1935 8.39317 13.2638L5.57431 18.969ZM15.5584 18.3138C15.1971 18.5556 14.8189 18.7748 14.4257 18.969L11.6068 13.2638C11.7491 13.1935 11.8865 13.1139 12.0182 13.0258L15.5584 18.3138ZM8.05186 19.8097C7.6191 19.7241 7.19611 19.6106 6.785 19.4711L8.83013 13.445C8.97813 13.4952 9.13055 13.5362 9.28684 13.5671L8.05186 19.8097ZM13.215 19.4711C12.8039 19.6106 12.3809 19.7241 11.9481 19.8097L10.7132 13.5671C10.8695 13.5362 11.0219 13.4952 11.1699 13.445L13.215 19.4711ZM10 20C9.78153 20 9.56426 19.9929 9.34845 19.979L9.75883 13.6286C9.83813 13.6337 9.91854 13.6364 10 13.6364C10.0815 13.6364 10.1619 13.6337 10.2412 13.6286L10.6515 19.979C10.4357 19.9929 10.2185 20 10 20Z"
		fill="#E9AD00" />
	<path
		d="M19.0955 13C19.0955 13.6316 19.2122 14.1667 19.4457 14.6053C19.6791 15.0439 19.9844 15.4035 20.3616 15.6842C20.7566 15.9474 21.2146 16.1491 21.7354 16.2895C22.2562 16.4123 22.7949 16.4737 23.3516 16.4737C23.7287 16.4737 24.1328 16.4474 24.5638 16.3947C24.9948 16.3246 25.3988 16.2018 25.776 16.0263C26.1531 15.8509 26.4674 15.614 26.7188 15.3158C26.9702 15 27.0959 14.6053 27.0959 14.1316C27.0959 13.6228 26.9253 13.2105 26.5841 12.8947C26.2608 12.5789 25.8298 12.3158 25.2911 12.1053C24.7523 11.8947 24.1418 11.7105 23.4594 11.5526C22.7769 11.3947 22.0855 11.2193 21.3852 11.0263C20.6669 10.8509 19.9665 10.6404 19.2841 10.3947C18.6017 10.1316 17.9911 9.79825 17.4523 9.39474C16.9136 8.99123 16.4736 8.49123 16.1324 7.89474C15.8092 7.2807 15.6475 6.54386 15.6475 5.68421C15.6475 4.7193 15.8541 3.88596 16.2671 3.18421C16.6981 2.46491 17.2548 1.86842 17.9372 1.39474C18.6196 0.921052 19.3918 0.570174 20.2538 0.342104C21.1158 0.114035 21.9778 0 22.8398 0C23.8455 0 24.8062 0.114035 25.7221 0.342104C26.6559 0.552631 27.482 0.903508 28.2003 1.39474C28.9186 1.88596 29.4843 2.51754 29.8974 3.28947C30.3284 4.04386 30.5439 4.96491 30.5439 6.05263H26.4494C26.4135 5.49123 26.2878 5.02632 26.0723 4.65789C25.8747 4.28947 25.6054 4 25.2642 3.78947C24.9229 3.57895 24.5279 3.42982 24.0789 3.3421C23.6479 3.25439 23.172 3.21053 22.6512 3.21053C22.31 3.21053 21.9688 3.24561 21.6276 3.31579C21.2864 3.38596 20.9721 3.50877 20.6848 3.68421C20.4154 3.85965 20.191 4.07895 20.0114 4.3421C19.8318 4.60526 19.742 4.9386 19.742 5.34211C19.742 5.71053 19.8138 6.00877 19.9575 6.23684C20.1012 6.46491 20.3795 6.67544 20.7926 6.86842C21.2236 7.0614 21.8072 7.25439 22.5435 7.44737C23.2977 7.64035 24.2765 7.88597 25.4797 8.18421C25.8388 8.25439 26.3327 8.38597 26.9612 8.57895C27.6077 8.75439 28.2452 9.04386 28.8738 9.44737C29.5023 9.85088 30.041 10.3947 30.49 11.0789C30.9569 11.7456 31.1904 12.6053 31.1904 13.6579C31.1904 14.5175 31.0198 15.3158 30.6786 16.0526C30.3373 16.7895 29.8255 17.4298 29.1431 17.9737C28.4787 18.5 27.6436 18.9123 26.638 19.2105C25.6503 19.5088 24.5009 19.6579 23.19 19.6579C22.1304 19.6579 21.0978 19.5263 20.0922 19.2632C19.1045 19.0175 18.2245 18.6228 17.4523 18.0789C16.6981 17.5351 16.0965 16.8421 15.6475 16C15.1986 15.1579 14.9831 14.1579 15.001 13H19.0955Z"
		fill="#262626" />
	<path
		d="M40.3333 16.7895C40.9618 16.7895 41.4826 16.6667 41.8956 16.4211C42.3266 16.1754 42.6678 15.8596 42.9192 15.4737C43.1886 15.0702 43.3772 14.6053 43.4849 14.0789C43.5927 13.5526 43.6466 13.0175 43.6466 12.4737C43.6466 11.9298 43.5837 11.3947 43.458 10.8684C43.3502 10.3421 43.1617 9.87719 42.8923 9.47368C42.6229 9.05263 42.2728 8.7193 41.8418 8.47368C41.4287 8.21053 40.9169 8.07895 40.3063 8.07895C39.6778 8.07895 39.148 8.21053 38.717 8.47368C38.304 8.7193 37.9628 9.04386 37.6934 9.44737C37.442 9.85088 37.2624 10.3158 37.1547 10.8421C37.0469 11.3684 36.993 11.9123 36.993 12.4737C36.993 13.0175 37.0469 13.5526 37.1547 14.0789C37.2804 14.6053 37.4689 15.0702 37.7203 15.4737C37.9897 15.8596 38.3399 16.1754 38.7709 16.4211C39.2019 16.6667 39.7227 16.7895 40.3333 16.7895ZM33.3026 5.63158H36.9392V7.36842H36.993C37.46 6.63158 38.0526 6.09649 38.7709 5.76316C39.4892 5.42982 40.2794 5.26316 41.1414 5.26316C42.2368 5.26316 43.1796 5.46491 43.9698 5.86842C44.76 6.27193 45.4154 6.80702 45.9362 7.47368C46.457 8.14035 46.8431 8.92105 47.0945 9.81579C47.3459 10.693 47.4717 11.614 47.4717 12.5789C47.4717 13.4912 47.3459 14.3684 47.0945 15.2105C46.8431 16.0526 46.457 16.7982 45.9362 17.4474C45.4334 18.0965 44.7959 18.614 44.0237 19C43.2694 19.386 42.3805 19.5789 41.3569 19.5789C40.4949 19.5789 39.6957 19.4123 38.9595 19.0789C38.2411 18.7281 37.6485 18.2193 37.1816 17.5526H37.1277V24H33.3026V5.63158Z"
		fill="#262626" />
	<path
		d="M49.6085 9.81579C49.6624 8.9386 49.8869 8.21053 50.282 7.63158C50.6771 7.05263 51.1799 6.58772 51.7905 6.23684C52.401 5.88597 53.0835 5.64035 53.8377 5.5C54.6099 5.34211 55.3821 5.26316 56.1543 5.26316C56.8547 5.26316 57.564 5.31579 58.2824 5.42105C59.0007 5.50877 59.6562 5.69298 60.2488 5.97368C60.8414 6.25439 61.3263 6.64912 61.7034 7.15789C62.0805 7.64912 62.2691 8.30702 62.2691 9.13158V16.2105C62.2691 16.8246 62.305 17.4123 62.3768 17.9737C62.4487 18.5351 62.5744 18.9561 62.754 19.2368H58.875C58.8031 19.0263 58.7403 18.8158 58.6864 18.6053C58.6505 18.3772 58.6236 18.1491 58.6056 17.9211C57.995 18.5351 57.2767 18.9649 56.4506 19.2105C55.6245 19.4561 54.7805 19.5789 53.9185 19.5789C53.2541 19.5789 52.6345 19.5 52.0598 19.3421C51.4852 19.1842 50.9823 18.9386 50.5513 18.6053C50.1203 18.2719 49.7791 17.8509 49.5277 17.3421C49.2943 16.8333 49.1775 16.2281 49.1775 15.5263C49.1775 14.7544 49.3122 14.1228 49.5816 13.6316C49.8689 13.1228 50.2281 12.7193 50.6591 12.4211C51.1081 12.1228 51.6109 11.9035 52.1676 11.7632C52.7422 11.6053 53.3169 11.4825 53.8916 11.3947C54.4662 11.307 55.0319 11.2368 55.5886 11.1842C56.1453 11.1316 56.6392 11.0526 57.0702 10.9474C57.5012 10.8421 57.8424 10.693 58.0938 10.5C58.3452 10.2895 58.4619 9.99123 58.444 9.60526C58.444 9.20175 58.3721 8.88597 58.2285 8.6579C58.1028 8.41228 57.9232 8.22807 57.6897 8.10526C57.4742 7.96491 57.2138 7.87719 56.9086 7.8421C56.6212 7.78947 56.307 7.76316 55.9657 7.76316C55.2115 7.76316 54.6189 7.92105 54.1879 8.23684C53.7569 8.55263 53.5055 9.07895 53.4336 9.81579H49.6085ZM58.444 12.5789C58.2824 12.7193 58.0758 12.8333 57.8244 12.9211C57.591 12.9912 57.3306 13.0526 57.0432 13.1053C56.7739 13.1579 56.4865 13.2018 56.1812 13.2368C55.876 13.2719 55.5707 13.3158 55.2654 13.3684C54.978 13.4211 54.6907 13.4912 54.4034 13.5789C54.134 13.6667 53.8916 13.7895 53.6761 13.9474C53.4785 14.0877 53.3169 14.2719 53.1912 14.5C53.0655 14.7281 53.0026 15.0175 53.0026 15.3684C53.0026 15.7018 53.0655 15.9825 53.1912 16.2105C53.3169 16.4386 53.4875 16.6228 53.703 16.7632C53.9185 16.886 54.1699 16.9737 54.4573 17.0263C54.7446 17.0789 55.0409 17.1053 55.3462 17.1053C56.1004 17.1053 56.6841 16.9825 57.0971 16.7368C57.5102 16.4912 57.8154 16.2018 58.013 15.8684C58.2105 15.5175 58.3273 15.1667 58.3632 14.8158C58.417 14.4649 58.444 14.1842 58.444 13.9737V12.5789Z"
		fill="#262626" />
	<path
		d="M65.2381 5.63158H68.8746V8.15789H68.9285C69.1081 7.73684 69.3505 7.35088 69.6558 7C69.9611 6.63158 70.3113 6.32456 70.7063 6.07895C71.1014 5.81579 71.5234 5.61403 71.9724 5.47368C72.4214 5.33333 72.8883 5.26316 73.3731 5.26316C73.6246 5.26316 73.9029 5.30702 74.2082 5.39474V8.86842C74.0286 8.83333 73.8131 8.80702 73.5617 8.78947C73.3103 8.75439 73.0679 8.73684 72.8344 8.73684C72.134 8.73684 71.5414 8.85088 71.0565 9.07895C70.5717 9.30702 70.1766 9.62281 69.8713 10.0263C69.584 10.4123 69.3774 10.8684 69.2517 11.3947C69.126 11.9211 69.0632 12.4912 69.0632 13.1053V19.2368H65.2381V5.63158Z"
		fill="#262626" />
	<path
		d="M76.058 0.447367H79.8831V10.5263L84.7049 5.63158H89.2304L83.9776 10.6316L89.823 19.2368H85.1898L81.3647 13.1579L79.8831 14.5526V19.2368H76.058V0.447367Z"
		fill="#262626" />
	<path
		d="M108.84 13.3158C108.84 13.9298 108.777 14.6053 108.651 15.3421C108.525 16.0789 108.238 16.7719 107.789 17.4211C107.34 18.0526 106.694 18.5877 105.85 19.0263C105.006 19.4474 103.865 19.6579 102.429 19.6579C101.62 19.6579 100.839 19.5439 100.085 19.3158C99.3307 19.1053 98.6573 18.7719 98.0647 18.3158C97.4721 17.8421 96.9962 17.2456 96.637 16.5263C96.2779 15.7895 96.0983 14.9035 96.0983 13.8684V12.2368H99.9234V13.0789C99.9234 13.5351 99.9593 13.9561 100.031 14.3421C100.103 14.7281 100.229 15.0614 100.408 15.3421C100.588 15.6053 100.83 15.8158 101.136 15.9737C101.459 16.1316 101.872 16.2105 102.375 16.2105C102.931 16.2105 103.362 16.114 103.668 15.9211C103.973 15.7281 104.188 15.4825 104.314 15.1842C104.458 14.8684 104.539 14.5351 104.557 14.1842C104.593 13.8158 104.61 13.4649 104.61 13.1316V0.447367H108.84V13.3158Z"
		fill="#262626" />
	<path
		d="M111.982 9.81579C112.036 8.9386 112.261 8.21053 112.656 7.63158C113.051 7.05263 113.554 6.58772 114.164 6.23684C114.775 5.88597 115.457 5.64035 116.211 5.5C116.984 5.34211 117.756 5.26316 118.528 5.26316C119.228 5.26316 119.938 5.31579 120.656 5.42105C121.374 5.50877 122.03 5.69298 122.622 5.97368C123.215 6.25439 123.7 6.64912 124.077 7.15789C124.454 7.64912 124.643 8.30702 124.643 9.13158V16.2105C124.643 16.8246 124.679 17.4123 124.751 17.9737C124.822 18.5351 124.948 18.9561 125.128 19.2368H121.249C121.177 19.0263 121.114 18.8158 121.06 18.6053C121.024 18.3772 120.997 18.1491 120.979 17.9211C120.369 18.5351 119.65 18.9649 118.824 19.2105C117.998 19.4561 117.154 19.5789 116.292 19.5789C115.628 19.5789 115.008 19.5 114.434 19.3421C113.859 19.1842 113.356 18.9386 112.925 18.6053C112.494 18.2719 112.153 17.8509 111.901 17.3421C111.668 16.8333 111.551 16.2281 111.551 15.5263C111.551 14.7544 111.686 14.1228 111.955 13.6316C112.243 13.1228 112.602 12.7193 113.033 12.4211C113.482 12.1228 113.985 11.9035 114.541 11.7632C115.116 11.6053 115.691 11.4825 116.265 11.3947C116.84 11.307 117.406 11.2368 117.962 11.1842C118.519 11.1316 119.013 11.0526 119.444 10.9474C119.875 10.8421 120.216 10.693 120.467 10.5C120.719 10.2895 120.836 9.99123 120.818 9.60526C120.818 9.20175 120.746 8.88597 120.602 8.6579C120.476 8.41228 120.297 8.22807 120.063 8.10526C119.848 7.96491 119.588 7.87719 119.282 7.8421C118.995 7.78947 118.681 7.76316 118.339 7.76316C117.585 7.76316 116.993 7.92105 116.562 8.23684C116.131 8.55263 115.879 9.07895 115.807 9.81579H111.982ZM120.818 12.5789C120.656 12.7193 120.45 12.8333 120.198 12.9211C119.965 12.9912 119.704 13.0526 119.417 13.1053C119.148 13.1579 118.86 13.2018 118.555 13.2368C118.25 13.2719 117.944 13.3158 117.639 13.3684C117.352 13.4211 117.064 13.4912 116.777 13.5789C116.508 13.6667 116.265 13.7895 116.05 13.9474C115.852 14.0877 115.691 14.2719 115.565 14.5C115.439 14.7281 115.376 15.0175 115.376 15.3684C115.376 15.7018 115.439 15.9825 115.565 16.2105C115.691 16.4386 115.861 16.6228 116.077 16.7632C116.292 16.886 116.544 16.9737 116.831 17.0263C117.118 17.0789 117.415 17.1053 117.72 17.1053C118.474 17.1053 119.058 16.9825 119.471 16.7368C119.884 16.4912 120.189 16.2018 120.387 15.8684C120.584 15.5175 120.701 15.1667 120.737 14.8158C120.791 14.4649 120.818 14.1842 120.818 13.9737V12.5789Z"
		fill="#262626" />
	<path
		d="M127.72 5.63158H131.329V7.47368H131.383C131.886 6.77193 132.487 6.22807 133.188 5.84211C133.906 5.45614 134.723 5.26316 135.639 5.26316C136.519 5.26316 137.318 5.42982 138.037 5.76316C138.773 6.09649 139.33 6.68421 139.707 7.52632C140.12 6.92982 140.676 6.40351 141.377 5.94737C142.095 5.49123 142.939 5.26316 143.909 5.26316C144.645 5.26316 145.328 5.35088 145.956 5.52632C146.585 5.70175 147.123 5.98246 147.572 6.36842C148.021 6.75439 148.371 7.26316 148.623 7.89474C148.874 8.50877 149 9.25439 149 10.1316V19.2368H145.175V11.5263C145.175 11.0702 145.157 10.6404 145.121 10.2368C145.085 9.83333 144.986 9.48246 144.825 9.18421C144.663 8.88596 144.421 8.64912 144.097 8.47368C143.792 8.29825 143.37 8.21053 142.831 8.21053C142.293 8.21053 141.853 8.31579 141.511 8.52632C141.188 8.7193 140.928 8.98246 140.73 9.31579C140.551 9.63158 140.425 10 140.353 10.4211C140.299 10.8246 140.272 11.2368 140.272 11.6579V19.2368H136.447V11.6053C136.447 11.2018 136.438 10.807 136.42 10.4211C136.402 10.0175 136.322 9.64912 136.178 9.31579C136.052 8.98246 135.828 8.7193 135.504 8.52632C135.199 8.31579 134.741 8.21053 134.131 8.21053C133.951 8.21053 133.709 8.25439 133.403 8.3421C133.116 8.41228 132.829 8.5614 132.541 8.78947C132.272 9 132.038 9.31579 131.841 9.73684C131.643 10.1404 131.545 10.6754 131.545 11.3421V19.2368H127.72V5.63158Z"
		fill="#262626" />
</svg>